<?xml version="1.0" encoding="UTF-8"?>
<svg version="1.1" xmlns="http://www.w3.org/2000/svg" width="1024" height="1024">
<path d="M0 0 C337.92 0 675.84 0 1024 0 C1024 337.92 1024 675.84 1024 1024 C686.08 1024 348.16 1024 0 1024 C0 686.08 0 348.16 0 0 Z " fill="#FECC47" transform="translate(0,0)"/>
<path d="M0 0 C337.92 0 675.84 0 1024 0 C1024 337.92 1024 675.84 1024 1024 C686.08 1024 348.16 1024 0 1024 C0 686.08 0 348.16 0 0 Z M163 164 C161.77023438 165.13501953 161.77023438 165.13501953 160.515625 166.29296875 C138.92448737 186.84478143 126.25766468 216.301495 120 245 C119.84837402 245.67208496 119.69674805 246.34416992 119.54052734 247.03662109 C113.63348658 273.85365801 114.70399874 301.95780366 114.73855066 329.24574685 C114.74313398 334.6160253 114.73606265 339.98629149 114.73059082 345.35656738 C114.72175668 355.8402423 114.72359204 366.32388837 114.7294161 376.80756436 C114.73395682 385.33880511 114.73453515 393.87003784 114.73236847 402.40127945 C114.732062 403.62150865 114.73175554 404.84173785 114.73143978 406.09894369 C114.73080025 408.57884406 114.73015182 411.05874444 114.7294946 413.53864481 C114.7238087 436.72427926 114.73032153 459.90989784 114.74109533 483.09552969 C114.75002699 502.92974259 114.74847858 522.76393206 114.73925781 542.59814453 C114.72852041 565.70506714 114.72436021 588.81197586 114.73048234 611.91890061 C114.73111935 614.38963008 114.73174809 616.86035955 114.73236847 619.33108902 C114.73267702 620.54630866 114.73298557 621.7615283 114.73330347 623.01357277 C114.7350202 631.51975217 114.73213748 640.02592266 114.72740936 648.53210068 C114.7217617 658.9196462 114.72339765 669.30716155 114.73397085 679.69470368 C114.73917617 684.98039635 114.74137376 690.26603898 114.73467255 695.55173111 C114.67022407 751.18418965 116.23863738 807.03576992 155 851 C155.83015625 851.97453125 156.6603125 852.9490625 157.515625 853.953125 C186.34621152 887.19001642 230.91710906 902.62808956 273.70654607 905.81363893 C294.27257472 907.20934421 314.7944081 907.28787658 335.40115547 907.26144934 C340.72360847 907.25685263 346.04604932 907.26394361 351.36849976 907.26940918 C361.74935405 907.27822843 372.13017916 907.27641508 382.51103452 907.2705839 C390.9573379 907.26603864 399.40363319 907.26546677 407.84993744 907.26763153 C409.05910068 907.267938 410.26826392 907.26824446 411.51406847 907.26856022 C413.97158617 907.26919976 416.42910387 907.26984819 418.88662156 907.2705054 C441.84330452 907.27618655 464.79997141 907.26968526 487.75665173 907.25890467 C507.39702063 907.24996663 527.03736589 907.25152761 546.67773438 907.26074219 C569.56712378 907.27147629 592.45649918 907.2756422 615.34589076 907.26951766 C617.79236905 907.26888066 620.23884733 907.26825191 622.68532562 907.26763153 C624.49022263 907.2671687 624.49022263 907.2671687 626.3315822 907.26669653 C634.75659344 907.26497932 643.18159569 907.26786341 651.60660553 907.27259064 C661.88944168 907.27823432 672.17224735 907.27661022 682.45508006 907.26602915 C687.68789598 907.26081966 692.92066132 907.25863377 698.15347672 907.26532745 C739.30422877 907.500818 739.30422877 907.500818 780 902 C780.77827148 901.83661133 781.55654297 901.67322266 782.35839844 901.50488281 C820.98536855 893.16269086 856.86736631 873.46300091 878.83398438 839.83007812 C885.87721238 828.77563149 891.49711348 817.30408304 896 805 C896.40412109 803.89664307 896.40412109 803.89664307 896.81640625 802.77099609 C907.88275609 771.85070581 909.15965309 738.04805073 909.14044189 705.49177551 C909.14303376 703.69992039 909.14604916 701.90806585 909.1494453 700.11621207 C909.15742221 695.24564028 909.15929959 690.3750833 909.16004276 685.50450575 C909.16190975 680.23014734 909.16946509 674.95579632 909.17617798 669.68144226 C909.18969521 658.17253033 909.1957756 646.66362192 909.20018864 635.15470338 C909.20296218 627.95245113 909.20720149 620.75020019 909.21169281 613.54794884 C909.22387663 593.56056331 909.23417782 573.57317884 909.2375679 553.58578968 C909.23789725 551.67111782 909.23789725 551.67111782 909.23823325 549.71776573 C909.23845153 548.43847345 909.23866981 547.15918116 909.2388947 545.84112245 C909.23933815 543.24930624 909.23978471 540.65749003 909.24023438 538.06567383 C909.24056652 536.13727774 909.24056652 536.13727774 909.24090537 534.16992416 C909.24484899 513.3633131 909.2622937 492.55673715 909.2855939 471.75013963 C909.3093877 450.32777362 909.32177338 428.90542518 909.32293582 407.48304576 C909.32384806 395.47963748 909.32948572 383.47627497 909.34775543 371.47287941 C909.36326524 361.24766154 909.36821344 351.0225036 909.36001733 340.79727618 C909.35614899 335.59440585 909.35684999 330.39165581 909.37107468 325.18880081 C909.48053352 282.62456005 908.52721989 239.13258737 887.93310547 200.74853516 C887.09107437 199.17066316 886.27991723 197.57640926 885.47265625 195.98046875 C868.38385614 162.89162865 835.23015373 139.03437299 800.40307617 127.69995117 C770.09236557 118.39813732 738.21772867 116.83371829 706.7131958 116.86628723 C704.95760098 116.86441291 703.20200657 116.86210978 701.4464128 116.85942191 C696.68071262 116.85337388 691.91503017 116.85342913 687.14932704 116.85461628 C681.98609959 116.85482209 676.82287757 116.84928445 671.65965271 116.84455872 C661.56458135 116.83628958 651.46951582 116.83350555 641.37444136 116.83294634 C633.15719662 116.83246929 624.93995379 116.83040518 616.72270966 116.82724571 C593.36287442 116.81844849 570.00304377 116.81382475 546.64320686 116.81457619 C545.38664684 116.81461614 544.13008682 116.8146561 542.83544922 116.81469727 C541.57733286 116.81473815 540.31921651 116.81477903 539.02297541 116.81482115 C518.65939325 116.81522711 498.29582961 116.80566767 477.93225279 116.7915589 C456.96186016 116.77714581 435.99147653 116.77029145 415.02107882 116.77115268 C403.27256152 116.771483 391.52406364 116.76880883 379.77555084 116.75797462 C369.76812233 116.74880432 359.76072203 116.74674727 349.7532911 116.75348405 C344.66182892 116.75671697 339.57042067 116.75692519 334.47896385 116.7481308 C272.89432882 116.64853419 210.10798453 118.84184926 163 164 Z " fill="#FEFEFE" transform="translate(0,0)"/>
<path d="M0 0 C1.38362503 1.15642461 2.75905918 2.32273972 4.125 3.5 C4.78757812 4.01949219 5.45015625 4.53898437 6.1328125 5.07421875 C12.25269466 10.03012333 16.57697922 16.13994728 21.125 22.5 C22.1211085 23.83624311 23.11942577 25.1708656 24.125 26.5 C24.73085938 25.85933594 25.33671875 25.21867187 25.9609375 24.55859375 C39.30843167 10.77987285 55.45314582 0.75092408 75.07177734 0.02490234 C95.89384117 -0.18863581 113.84249208 6.87749248 129.01171875 21.29296875 C142.90936226 35.94014809 147.90685827 54.27828822 147.71704102 73.98413086 C147.2794736 87.0987062 143.25207261 97.2087434 136.7734375 108.59765625 C135.11482807 111.51790935 133.6033162 114.4851309 132.125 117.5 C132.49109375 117.90347656 132.8571875 118.30695313 133.234375 118.72265625 C149.83741884 137.34178399 162.19819043 156.99151462 171.5625 180.125 C171.90474609 180.96619385 172.24699219 181.8073877 172.59960938 182.67407227 C174.28681558 186.94492035 175.59674185 190.90192203 176.125 195.5 C176.690979 195.65782959 177.25695801 195.81565918 177.84008789 195.97827148 C203.94893042 203.50981877 228.55178938 214.94889307 250.125 231.5 C250.72570312 231.96019531 251.32640625 232.42039062 251.9453125 232.89453125 C269.38237756 246.46103703 289.39588408 269.14612765 293.25 291.5 C293.36767593 294.42050258 293.07918478 295.60537501 291.875 298.375 C284.87506454 303.78404104 274.2987487 304.24603615 265.76171875 305.4453125 C263.34409565 305.79906078 260.92653635 306.15324537 258.5090332 306.5078125 C257.25256989 306.68989258 255.99610657 306.87197266 254.7015686 307.05957031 C232.07673889 310.34898269 209.59943548 314.10098591 187.19213867 318.66845703 C186.29389374 318.85135284 185.3956488 319.03424866 184.47018433 319.22268677 C182.82537617 319.5594282 181.18127122 319.89963542 179.53811646 320.24435425 C174.74622088 321.2352695 169.98799035 321.94969343 165.125 322.5 C165.18645749 324.60491919 165.27558796 326.70903166 165.375 328.8125 C165.42140625 329.98425781 165.4678125 331.15601563 165.515625 332.36328125 C166.50876942 341.75311668 171.39548294 350.32520393 175.6875 358.5625 C180.12495659 367.27726334 184.27722433 376.07118172 188.125 385.0625 C188.5691626 386.08287354 189.0133252 387.10324707 189.47094727 388.15454102 C195.12025272 401.56773257 197.78885675 413.74398718 197.59155273 428.18847656 C197.56251535 430.49877838 197.5710183 432.80677923 197.58398438 435.1171875 C197.55442683 456.69562693 191.74672404 471.61232583 177.125 487.5 C176.48949219 488.19222656 175.85398437 488.88445312 175.19921875 489.59765625 C167.72228415 496.87564803 156.93005421 501.3272668 147.125 504.5 C150.11305843 515.01260349 153.34635095 525.44107509 156.671875 535.8515625 C156.98323647 536.82704166 156.98323647 536.82704166 157.30088806 537.82222748 C159.25473884 543.94248019 161.21251501 550.06147192 163.17578125 556.17871094 C167.98222816 571.16100743 172.68842634 586.16303469 177.078125 601.2734375 C177.44266785 602.5262149 177.80721069 603.77899231 178.18280029 605.06973267 C184.55342251 627.19805325 184.55342251 627.19805325 184.625 635 C184.6559375 636.1446875 184.686875 637.289375 184.71875 638.46875 C184.125 641.5 184.125 641.5 182.21875 643.65625 C173.57659766 648.80662362 164.12027813 650.92337226 154.375 653.0625 C153.69646973 653.21374329 153.01793945 653.36498657 152.31884766 653.52081299 C115.6776774 661.65887624 74.16348133 664.95904476 37.125 657.5 C36.0947168 657.30664062 35.06443359 657.11328125 34.00292969 656.9140625 C-11.36172052 648.35618962 -55.0494351 631.41785586 -97.42980957 613.46369934 C-147.85904865 592.10045192 -198.19949033 574.30841773 -253.65405273 574.31469727 C-255.80797954 574.3125046 -257.96139679 574.294226 -260.11523438 574.27539062 C-268.61335447 574.24200216 -276.81095385 574.81466151 -285.22412109 576.02636719 C-299.94860841 577.93659224 -299.94860841 577.93659224 -306.3125 574.8125 C-310.65410999 565.60828682 -305.92108868 554.60931338 -303.13720703 545.45849609 C-300.28559741 536.06406498 -297.73715505 526.60822231 -295.23812866 517.11486816 C-289.20065979 494.19310476 -282.85814317 471.35989439 -276.47288513 448.53308105 C-276.29012968 447.87973282 -276.10737423 447.22638458 -275.91908073 446.55323792 C-275.54786684 445.22624942 -275.17660634 443.89927396 -274.80529976 442.5723114 C-271.99284096 432.52024625 -269.19828228 422.46334612 -266.41796875 412.40234375 C-266.23358938 411.73516012 -266.04921001 411.06797649 -265.85924339 410.38057518 C-265.11257076 407.67852014 -264.36598521 404.97644105 -263.61949062 402.27433681 C-257.27546332 379.3119376 -250.90131031 356.35802917 -244.46505737 333.42129517 C-243.71434265 330.74597461 -242.96475947 328.07034195 -242.21633911 325.39437866 C-238.30255157 311.41061002 -234.30883511 297.45408854 -230.14453125 283.54296875 C-229.78765732 282.34855667 -229.43078339 281.15414459 -229.06309509 279.92353821 C-216.40162598 237.88605048 -199.31831192 197.16496788 -174.875 160.5 C-175.76832031 160.08814453 -175.76832031 160.08814453 -176.6796875 159.66796875 C-188.96954594 153.12941417 -196.91969487 136.0395263 -200.875 123.5 C-201.11863281 122.83226562 -201.36226563 122.16453125 -201.61328125 121.4765625 C-205.95974686 107.93451317 -202.56912117 91.79632593 -196.75 79.375 C-188.35505652 63.58409379 -175.75736226 52.59363371 -158.875 46.5 C-141.61765821 41.4136033 -121.75751002 43.08698727 -105.875 51.5 C-105.90980469 50.94054687 -105.94460938 50.38109375 -105.98046875 49.8046875 C-106.5668257 32.4373532 -100.562907 16.97189947 -88.84765625 4.30859375 C-64.70521806 -18.66493682 -26.33569084 -20.12572587 0 0 Z " fill="#FECC47" transform="translate(506.875,212.5)"/>
<path d="M0 0 C1.38362503 1.15642461 2.75905918 2.32273972 4.125 3.5 C4.78757812 4.01949219 5.45015625 4.53898437 6.1328125 5.07421875 C12.25269466 10.03012333 16.57697922 16.13994728 21.125 22.5 C22.1211085 23.83624311 23.11942577 25.1708656 24.125 26.5 C24.73085938 25.85933594 25.33671875 25.21867187 25.9609375 24.55859375 C39.30843167 10.77987285 55.45314582 0.75092408 75.07177734 0.02490234 C95.89384117 -0.18863581 113.84249208 6.87749248 129.01171875 21.29296875 C142.90936226 35.94014809 147.90685827 54.27828822 147.71704102 73.98413086 C147.2794736 87.0987062 143.25207261 97.2087434 136.7734375 108.59765625 C135.11482807 111.51790935 133.6033162 114.4851309 132.125 117.5 C132.49109375 117.90347656 132.8571875 118.30695313 133.234375 118.72265625 C149.83741884 137.34178399 162.19819043 156.99151462 171.5625 180.125 C171.90474609 180.96619385 172.24699219 181.8073877 172.59960938 182.67407227 C174.28681558 186.94492035 175.59674185 190.90192203 176.125 195.5 C176.690979 195.65782959 177.25695801 195.81565918 177.84008789 195.97827148 C203.94893042 203.50981877 228.55178938 214.94889307 250.125 231.5 C250.72570312 231.96019531 251.32640625 232.42039062 251.9453125 232.89453125 C269.38237756 246.46103703 289.39588408 269.14612765 293.25 291.5 C293.36767593 294.42050258 293.07918478 295.60537501 291.875 298.375 C284.87506454 303.78404104 274.2987487 304.24603615 265.76171875 305.4453125 C263.34409565 305.79906078 260.92653635 306.15324537 258.5090332 306.5078125 C257.25256989 306.68989258 255.99610657 306.87197266 254.7015686 307.05957031 C232.07673889 310.34898269 209.59943548 314.10098591 187.19213867 318.66845703 C186.29389374 318.85135284 185.3956488 319.03424866 184.47018433 319.22268677 C182.82537617 319.5594282 181.18127122 319.89963542 179.53811646 320.24435425 C174.74622088 321.2352695 169.98799035 321.94969343 165.125 322.5 C165.18645749 324.60491919 165.27558796 326.70903166 165.375 328.8125 C165.42140625 329.98425781 165.4678125 331.15601563 165.515625 332.36328125 C166.50876942 341.75311668 171.39548294 350.32520393 175.6875 358.5625 C180.12495659 367.27726334 184.27722433 376.07118172 188.125 385.0625 C188.5691626 386.08287354 189.0133252 387.10324707 189.47094727 388.15454102 C195.12025272 401.56773257 197.78885675 413.74398718 197.59155273 428.18847656 C197.56251535 430.49877838 197.5710183 432.80677923 197.58398438 435.1171875 C197.55442683 456.69562693 191.74672404 471.61232583 177.125 487.5 C176.48949219 488.19222656 175.85398437 488.88445312 175.19921875 489.59765625 C167.72228415 496.87564803 156.93005421 501.3272668 147.125 504.5 C150.11305843 515.01260349 153.34635095 525.44107509 156.671875 535.8515625 C156.98323647 536.82704166 156.98323647 536.82704166 157.30088806 537.82222748 C159.25473884 543.94248019 161.21251501 550.06147192 163.17578125 556.17871094 C167.98222816 571.16100743 172.68842634 586.16303469 177.078125 601.2734375 C177.44266785 602.5262149 177.80721069 603.77899231 178.18280029 605.06973267 C184.55342251 627.19805325 184.55342251 627.19805325 184.625 635 C184.6559375 636.1446875 184.686875 637.289375 184.71875 638.46875 C184.125 641.5 184.125 641.5 182.21875 643.65625 C173.57659766 648.80662362 164.12027813 650.92337226 154.375 653.0625 C153.69646973 653.21374329 153.01793945 653.36498657 152.31884766 653.52081299 C115.6776774 661.65887624 74.16348133 664.95904476 37.125 657.5 C36.0947168 657.30664062 35.06443359 657.11328125 34.00292969 656.9140625 C-11.36172052 648.35618962 -55.0494351 631.41785586 -97.42980957 613.46369934 C-147.85904865 592.10045192 -198.19949033 574.30841773 -253.65405273 574.31469727 C-255.80797954 574.3125046 -257.96139679 574.294226 -260.11523438 574.27539062 C-268.61335447 574.24200216 -276.81095385 574.81466151 -285.22412109 576.02636719 C-299.94860841 577.93659224 -299.94860841 577.93659224 -306.3125 574.8125 C-310.65410999 565.60828682 -305.92108868 554.60931338 -303.13720703 545.45849609 C-300.28559741 536.06406498 -297.73715505 526.60822231 -295.23812866 517.11486816 C-289.20065979 494.19310476 -282.85814317 471.35989439 -276.47288513 448.53308105 C-276.29012968 447.87973282 -276.10737423 447.22638458 -275.91908073 446.55323792 C-275.54786684 445.22624942 -275.17660634 443.89927396 -274.80529976 442.5723114 C-271.99284096 432.52024625 -269.19828228 422.46334612 -266.41796875 412.40234375 C-266.23358938 411.73516012 -266.04921001 411.06797649 -265.85924339 410.38057518 C-265.11257076 407.67852014 -264.36598521 404.97644105 -263.61949062 402.27433681 C-257.27546332 379.3119376 -250.90131031 356.35802917 -244.46505737 333.42129517 C-243.71434265 330.74597461 -242.96475947 328.07034195 -242.21633911 325.39437866 C-238.30255157 311.41061002 -234.30883511 297.45408854 -230.14453125 283.54296875 C-229.78765732 282.34855667 -229.43078339 281.15414459 -229.06309509 279.92353821 C-216.40162598 237.88605048 -199.31831192 197.16496788 -174.875 160.5 C-175.76832031 160.08814453 -175.76832031 160.08814453 -176.6796875 159.66796875 C-188.96954594 153.12941417 -196.91969487 136.0395263 -200.875 123.5 C-201.11863281 122.83226562 -201.36226563 122.16453125 -201.61328125 121.4765625 C-205.95974686 107.93451317 -202.56912117 91.79632593 -196.75 79.375 C-188.35505652 63.58409379 -175.75736226 52.59363371 -158.875 46.5 C-141.61765821 41.4136033 -121.75751002 43.08698727 -105.875 51.5 C-105.90980469 50.94054687 -105.94460938 50.38109375 -105.98046875 49.8046875 C-106.5668257 32.4373532 -100.562907 16.97189947 -88.84765625 4.30859375 C-64.70521806 -18.66493682 -26.33569084 -20.12572587 0 0 Z M-106.875 134.5 C-107.65488281 135.15871094 -108.43476563 135.81742188 -109.23828125 136.49609375 C-113.45115759 140.128372 -117.29885095 143.88386115 -120.8828125 148.13671875 C-122.4169478 149.95662436 -123.97208884 151.74254939 -125.5546875 153.51953125 C-139.39543626 169.16310511 -149.90151199 186.1921393 -159.875 204.5 C-160.72091549 206.02628488 -161.56723486 207.55234602 -162.4140625 209.078125 C-170.08675617 223.0525244 -175.93429182 237.658346 -181.375 252.625 C-181.70628906 253.53378906 -182.03757812 254.44257813 -182.37890625 255.37890625 C-189.55466097 275.48739002 -195.57208033 295.97945627 -201.4375 316.5 C-202.06412992 318.67978044 -202.6910829 320.85946803 -203.31835938 323.0390625 C-206.4703819 334.0063064 -209.5874594 344.98340073 -212.67578125 355.96875 C-212.95893692 356.97268799 -213.24209259 357.97662598 -213.53382874 359.01098633 C-215.30015725 365.31507447 -216.94562076 371.64046811 -218.5 378 C-220.13460701 384.66237223 -221.91703817 391.24963689 -223.89845276 397.81718445 C-225.55182651 403.32086689 -227.07534598 408.85383392 -228.5703125 414.40234375 C-230.82401615 422.71516767 -233.13661182 431.00956224 -235.49609375 439.29296875 C-235.95988434 440.92144745 -235.95988434 440.92144745 -236.43304443 442.58282471 C-237.06818525 444.81193057 -237.70347107 447.04099513 -238.33889771 449.27001953 C-242.96204824 465.49792566 -247.57896739 481.71661349 -251.71533203 498.07641602 C-253.6289559 505.639093 -255.71777386 513.14049956 -257.92407227 520.62304688 C-258.26523071 521.78803711 -258.26523071 521.78803711 -258.61328125 522.9765625 C-258.80962158 523.63736816 -259.00596191 524.29817383 -259.20825195 524.97900391 C-260.21677175 528.79225014 -261.03776878 532.6460393 -261.875 536.5 C-260.20836304 536.56731323 -260.20836304 536.56731323 -258.50805664 536.63598633 C-203.04919882 538.91775535 -203.04919882 538.91775535 -177.875 545.5 C-177.09866211 545.69932129 -176.32232422 545.89864258 -175.52246094 546.10400391 C-148.75039731 553.07332468 -123.21474227 563.61470736 -97.7923584 574.38208008 C-75.02790406 584.02254758 -52.18103561 593.24119377 -28.875 601.5 C-28.16690186 601.75092407 -27.45880371 602.00184814 -26.72924805 602.26037598 C0.35761903 611.82616902 27.59625059 619.55167485 56.125 623.5 C56.84526367 623.6045752 57.56552734 623.70915039 58.30761719 623.81689453 C65.18927631 624.71305914 72.07016937 624.65213679 79 624.625 C80.29502441 624.62016602 81.59004883 624.61533203 82.92431641 624.61035156 C103.61482208 624.48147087 123.64936687 622.32740966 144.125 619.5 C143.53290189 614.44156331 142.4224857 609.8098189 140.79931641 604.97705078 C140.56324677 604.25850418 140.32717712 603.53995758 140.08395386 602.79963684 C139.30375675 600.42963895 138.51522067 598.06250691 137.7265625 595.6953125 C137.17091563 594.01333905 136.61578059 592.33119643 136.06112671 590.64889526 C134.59428701 586.2046747 133.12032283 581.76284853 131.64489746 577.32147217 C129.89929851 572.0616975 128.16238473 566.79904618 126.42577744 561.53629684 C124.9996109 557.21755463 123.56628305 552.9014408 122.11773682 548.59014893 C119.63370499 541.18329793 117.17464355 533.78124266 114.96519661 526.28704262 C114.07200681 523.26450239 113.14838503 520.25164024 112.22269821 517.2389183 C111.8078896 515.85674727 111.40838263 514.46986204 111.02666092 513.07818985 C107.85133559 501.51599994 102.42710851 496.32277796 93.125 489.5 C83.28775731 481.22860938 75.19529919 472.88995331 69.125 461.5 C68.80063965 460.89542969 68.4762793 460.29085938 68.14208984 459.66796875 C56.22438309 436.96757494 52.51285534 408.0535071 59.87109375 383.296875 C60.28488281 382.04390625 60.69867187 380.7909375 61.125 379.5 C61.33398926 378.84708984 61.54297852 378.19417969 61.75830078 377.52148438 C72.60274368 344.15146833 96.36552464 315.51612258 127.39038086 298.93652344 C153.72620858 285.67951679 184.31653169 281.42944093 213.125 276.5 C216.5714143 275.90507501 220.01762084 275.30897697 223.46362305 274.71166992 C225.42931978 274.37233159 227.39559787 274.03633683 229.36254883 273.7043457 C230.22001709 273.55827881 231.07748535 273.41221191 231.9609375 273.26171875 C232.69876465 273.13756592 233.4365918 273.01341309 234.19677734 272.88549805 C236.33090692 272.50031281 236.33090692 272.50031281 239.125 271.5 C239.125 270.84 239.125 270.18 239.125 269.5 C237.05917897 267.68147433 234.9912492 265.98660522 232.8125 264.3125 C232.16804932 263.81492187 231.52359863 263.31734375 230.85961914 262.8046875 C207.63444267 245.06543306 180.02946355 233.84555058 152.27661133 225.2487793 C147.32094274 223.69594274 147.32094274 223.69594274 145.125 221.5 C144.66199105 218.85039395 144.28349695 216.22734731 143.9375 213.5625 C139.94711136 187.04805016 125.59151663 162.59356304 107.125 143.5 C106.35675903 142.69780029 106.35675903 142.69780029 105.57299805 141.87939453 C76.96612762 112.53342241 38.20752089 98.05348582 -2.23339844 97.16577148 C-40.44444017 96.75215702 -77.72605435 109.26433793 -106.875 134.5 Z " fill="#892926" transform="translate(506.875,212.5)"/>
<path d="M0 0 C8.2918324 5.09333763 13.74975901 11.93330128 16.77734375 21.29296875 C18.29103574 29.79925962 17.55002307 37.83373835 13.13671875 45.3125 C7.03783502 53.95469417 -0.43435749 59.19347565 -10.86328125 61.3125 C-20.18052902 62.32560537 -28.45709545 59.90311086 -36.17578125 54.625 C-42.07171816 49.84287458 -45.88045721 43.60096278 -47.86328125 36.3125 C-48.70198684 27.02138478 -48.62112973 18.38406787 -42.94140625 10.71875 C-32.08618075 -2.00806611 -15.88545552 -7.76742137 0 0 Z " fill="#892826" transform="translate(557.86328125,393.6875)"/>
<path d="M0 0 C7.18567372 0.44765744 13.64909468 1.82576059 20.5 4 C21.83804687 4.40992188 21.83804687 4.40992188 23.203125 4.828125 C29.62797619 6.8139881 29.62797619 6.8139881 32 8 C32 8.66 32 9.32 32 10 C25.05243468 9.39114974 18.71351532 7.61507607 12.0625 5.5625 C10.4837207 5.09360352 10.4837207 5.09360352 8.87304688 4.61523438 C7.87466797 4.31037109 6.87628906 4.00550781 5.84765625 3.69140625 C4.94023682 3.41498291 4.03281738 3.13855957 3.09790039 2.85375977 C1 2 1 2 0 0 Z " fill="#811E24" transform="translate(316,755)"/>
<path d="M0 0 C0.66 0 1.32 0 2 0 C1.67 2.31 1.34 4.62 1 7 C0.34 7 -0.32 7 -1 7 C-1.66 9.97 -2.32 12.94 -3 16 C-3.33 16 -3.66 16 -4 16 C-3.6083965 10.04492601 -2.62875405 5.37180176 0 0 Z " fill="#832024" transform="translate(310,292)"/>
<path d="M0 0 C0 3 0 3 -1.96875 5.26171875 C-2.8040625 6.06222656 -3.639375 6.86273437 -4.5 7.6875 C-5.3353125 8.49574219 -6.170625 9.30398438 -7.03125 10.13671875 C-7.6809375 10.75160156 -8.330625 11.36648438 -9 12 C-9.66 11.34 -10.32 10.68 -11 10 C-5.555 5.05 -5.555 5.05 0 0 Z " fill="#FDE04A" transform="translate(686,697)"/>
<path d="M0 0 C0 3.96130371 -1.34877125 4.82914401 -4 7.6875 C-4.7425 8.49574219 -5.485 9.30398437 -6.25 10.13671875 C-6.8275 10.75160156 -7.405 11.36648437 -8 12 C-8 8.03869629 -6.65122875 7.17085599 -4 4.3125 C-3.2575 3.50425781 -2.515 2.69601563 -1.75 1.86328125 C-1.1725 1.24839844 -0.595 0.63351563 0 0 Z " fill="#FEC42E" transform="translate(159,168)"/>
<path d="M0 0 C0 3 0 3 -1.53125 4.60546875 C-2.1809375 5.12753906 -2.830625 5.64960938 -3.5 6.1875 C-4.1496875 6.71730469 -4.799375 7.24710937 -5.46875 7.79296875 C-5.9740625 8.19128906 -6.479375 8.58960938 -7 9 C-7.66 8.67 -8.32 8.34 -9 8 C-7.87811441 6.85111717 -6.75238316 5.70598863 -5.625 4.5625 C-4.99851562 3.92441406 -4.37203125 3.28632813 -3.7265625 2.62890625 C-2 1 -2 1 0 0 Z " fill="#781422" transform="translate(525,395)"/>
<path d="M0 0 C0.66 0.33 1.32 0.66 2 1 C2 1.99 2 2.98 2 4 C2.99 4.33 3.98 4.66 5 5 C-2.75 4.25 -2.75 4.25 -5 2 C-3.35 2 -1.7 2 0 2 C0 1.34 0 0.68 0 0 Z " fill="#9B402D" transform="translate(348,763)"/>
<path d="M0 0 C0.33 0.66 0.66 1.32 1 2 C-0.25 5.0625 -0.25 5.0625 -2 8 C-2.99 8.33 -3.98 8.66 -5 9 C-3.7508258 5.54074837 -2.32472205 2.85306797 0 0 Z " fill="#FEC632" transform="translate(145,186)"/>
</svg>
